<svg width="210" height="150" viewBox="0 0 210 150" fill="none" xmlns="http://www.w3.org/2000/svg">
<path fill-rule="evenodd" clip-rule="evenodd" d="M102.925 126.57C61.1448 123.302 47.5736 99.9869 43.7851 83.8588C43.7851 83.8588 51.9546 86.1068 62.6254 87.5941C62.6544 87.5983 65.5121 88.002 65.5701 87.2286C65.6805 85.7399 41.5145 78.5003 29.8051 58.0802C20.6674 42.1461 20.1107 26.8651 20.1107 26.8651C44.6276 31.6811 59.696 37.7139 136.829 35.7592C160.716 35.7592 171.373 40.7849 171.373 70.5693C171.373 91.3676 162.433 126.166 102.925 126.57ZM209.801 69.4574C209.801 65.5592 205.742 63.0591 200.722 61.4557L200.822 61.3508C200.822 61.3508 200.523 61.3268 200.046 61.2474C199.24 61.0052 198.412 60.7857 197.575 60.5859C196.446 60.1624 195.236 59.5137 194.328 58.515C193.28 57.3634 192.646 55.896 192.263 54.6424C189.08 33.0381 177.042 13.2725 136.829 13.2725H66.99C64.6255 13.1932 58.2072 12.8178 43.0007 11.1237C28.2528 9.48196 15.0572 4.75373 14.9357 4.70982L1.99011 0L0.382448 13.9906C0.187705 15.6904 -4.00686 55.1551 20.8484 75.1814L20.8277 75.4137C19.8733 86.009 23.8552 109.12 45.4495 127.817C92.2596 168.342 155.878 142.904 172.152 125.077C182.338 113.918 189.643 100.739 192.17 84.924C192.537 83.6081 193.19 81.9834 194.328 80.7326C194.823 80.1901 195.408 79.7552 196.019 79.3983C197.653 78.9705 199.281 78.4747 200.82 77.8982L200.822 77.8968C205.796 76.0313 209.801 73.3287 209.801 69.4574ZM148.589 49.2512C143.169 49.2512 139.521 52.672 139.521 58.9796C139.521 64.8595 143.169 68.1741 148.589 68.1741C153.906 68.1741 157.762 64.6456 157.762 58.8734C157.762 52.5658 154.53 49.2512 148.589 49.2512Z" fill="#0073E6"/>
</svg>
