<?xml version="1.0" encoding="UTF-8"?>
<svg id="_Шар_1" data-name="Шар_1" xmlns="http://www.w3.org/2000/svg" version="1.1" viewBox="0 0 3000 3000">
  <!-- Generator: Adobe Illustrator 29.5.0, SVG Export Plug-In . SVG Version: 2.1.0 Build 137)  -->
  <defs>
    <style>
      .st0 {
        fill: #aeb8ed;
      }

      .st1 {
        fill: #252525;
      }
    </style>
  </defs>
  <g>
    <path class="st1" d="M1287.6,1570.2l9.1,29.1-79.5,22.4-24.8-16.1v-150.4h-35.8v-30.3h35.8v-46.1h33.9v46.1h56.3v30.3h-56.3v132.3l61.4-17.3Z"/>
    <path class="st1" d="M1339.1,1524.9c.8,38.2,26.8,67.7,66.5,67.7s50-15.7,61-39.4l24,15.4c-15.4,31.1-44.9,52.4-86.2,52.4-59.1,0-98.8-44.9-98.8-100s39.8-100,98-100,94.9,42.1,92.1,103.9h-156.7ZM1342.3,1498.1h118.5c-5.5-31.1-25.2-49.6-57.1-49.6s-53.5,19.7-61.4,49.6Z"/>
    <path class="st1" d="M1529.7,1617v-280.7h33.9v280.7h-33.9Z"/>
    <path class="st1" d="M1607.6,1617v-280.7h33.9v280.7h-33.9Z"/>
    <path class="st1" d="M1682.8,1539.1v-114.2h33.9v109.1c0,37,20.1,56.3,47.6,56.3s49.6-19.3,49.6-48.8v-116.5h33.5v132.3l34.6,44.1-25.6,20.9-32.3-41.7c-11.8,24-35.8,40.6-67.3,40.6s-74-28.3-74-81.9Z"/>
    <path class="st1" d="M1915,1617v-132.3l-34.6-44.1,25.6-20.9,31.5,40.9c11.8-24.4,35-39.8,65-39.8s54.3,13.8,66.9,37.8c11.4-23.2,34.3-37.8,64.2-37.8,42.9,0,76.4,29.1,76.4,77.6v118.5h-33.9v-116.9c0-29.5-21.3-48.4-48.4-48.4s-48.4,18.9-48.4,48.4v116.9h-33.9v-116.9c0-29.5-20.9-48.4-48-48.4s-48.4,18.9-48.4,48v117.3h-33.9Z"/>
  </g>
  <path class="st0" d="M1011.7,1518.4c-6.1-10.5-6.2-23.7-.2-34.3l75-133.4-38.8-22.3-54.3,94.7c-3.7,6.5-9.9,10.7-16.6,11.3-.6,0-1.3,0-1.9,0-7.4,0-14-3.8-17.7-10l-55.6-95.6-38.8,22.5,55.5,95.5c4,7.1,3.6,15.3-1,22-3.8,5.5-10.5,8.8-18,8.9l-109.1.3v44.8c.1,0,109.3-.3,109.3-.3,7.5,0,14.3,3.3,18.1,8.8,4.7,6.8,5,15.1,1,22.2l-54.9,95.6,38.9,22.3,54.3-94.7c3.7-6.5,9.9-10.7,16.6-11.3.6,0,1.2,0,1.9,0,7.4,0,14,3.8,17.7,10l55.6,95.6,38.8-22.5-75.7-130.2Z"/>
</svg>