<?xml version="1.0" encoding="UTF-8"?>
<svg id="_Шар_1" data-name="Шар_1" xmlns="http://www.w3.org/2000/svg" version="1.1" viewBox="0 0 3000 3000">
  <!-- Generator: Adobe Illustrator 29.5.0, SVG Export Plug-In . SVG Version: 2.1.0 Build 137)  -->
  <defs>
    <style>
      .st0 {
        fill: #ecf194;
      }
    </style>
  </defs>
  <path class="st0" d="M1609.5,1525.8c-11.5-19.9-11.7-44.6-.5-64.7l141.5-251.5-73.2-42-102.5,178.5c-7,12.3-18.7,20.2-31.3,21.3-1.2.1-2.4.1-3.6.1-13.9,0-26.4-7.1-33.4-18.9l-104.8-180.3-73.1,42.5,104.7,180.2c7.6,13.3,6.9,28.8-1.9,41.6-7.2,10.4-19.9,16.6-34,16.7l-205.8.6.2,84.6,205.9-.6c14.2,0,27,6.2,34.1,16.7,8.8,12.8,9.5,28.4,1.8,41.8l-103.5,180.3,73.3,42.1,102.5-178.5c7-12.3,18.8-20.2,31.3-21.3,1.2,0,2.3-.1,3.5-.1,13.9,0,26.4,7.1,33.4,18.9l104.8,180.3,73.1-42.5-142.6-245.5Z"/>
</svg>