<?xml version="1.0" encoding="UTF-8"?>
<svg id="_Шар_1" data-name="Шар_1" xmlns="http://www.w3.org/2000/svg" version="1.1" viewBox="0 0 3000 3000">
  <!-- Generator: Adobe Illustrator 29.5.0, SVG Export Plug-In . SVG Version: 2.1.0 Build 137)  -->
  <defs>
    <style>
      .st0 {
        fill: #aeb8ed;
      }

      .st1 {
        fill: #fff;
      }
    </style>
  </defs>
  <g>
    <path class="st1" d="M1856.6,1749.7l18.4-5.7,14.2,50.2-10.2,15.7h-94.9v22.6h-19.1v-22.6h-29.1v-21.4h29.1v-35.5h19.1v35.5h83.5l-10.9-38.8Z"/>
    <path class="st1" d="M1828,1717.1c24.1-.5,42.7-16.9,42.7-42s-9.9-31.6-24.9-38.5l9.7-15.2c19.6,9.7,33.1,28.3,33.1,54.4,0,37.3-28.3,62.4-63.1,62.4s-63.1-25.1-63.1-61.9,26.6-59.9,65.6-58.1v98.9ZM1811.1,1715.2v-74.8c-19.6,3.5-31.3,15.9-31.3,36s12.4,33.8,31.3,38.8Z"/>
    <path class="st1" d="M1886.2,1596.9h-177.2v-21.4h177.2v21.4Z"/>
    <path class="st1" d="M1886.2,1547.7h-177.2v-21.4h177.2v21.4Z"/>
    <path class="st1" d="M1837,1500.3h-72.1v-21.4h68.8c23.4,0,35.5-12.7,35.5-30.1s-12.2-31.3-30.8-31.3h-73.6v-21.1h83.5l27.8-21.9,13.2,16.2-26.3,20.4c15.2,7.5,25.6,22.6,25.6,42.5s-17.9,46.7-51.7,46.7Z"/>
    <path class="st1" d="M1886.2,1353.7h-83.5l-27.8,21.9-13.2-16.1,25.8-19.9c-15.4-7.5-25.1-22.1-25.1-41s8.7-34.3,23.9-42.2c-14.7-7.2-23.9-21.6-23.9-40.5,0-27.1,18.4-48.2,49-48.2h74.8v21.4h-73.8c-18.6,0-30.6,13.4-30.6,30.6s11.9,30.6,30.6,30.6h73.8v21.4h-73.8c-18.6,0-30.6,13.2-30.6,30.3s11.9,30.6,30.3,30.6h74v21.4Z"/>
  </g>
  <path class="st0" d="M1528.5,1525.8c-11.5-19.9-11.7-44.6-.5-64.7l141.5-251.5-73.2-42-102.5,178.5c-7,12.3-18.7,20.2-31.3,21.3-1.2.1-2.4.1-3.6.1-13.9,0-26.4-7.1-33.4-18.9l-104.8-180.3-73.1,42.5,104.7,180.2c7.6,13.3,6.9,28.8-1.9,41.6-7.2,10.4-19.9,16.6-34,16.7l-205.8.6.2,84.6,205.9-.6c14.2,0,27,6.2,34.1,16.7,8.8,12.8,9.5,28.4,1.8,41.8l-103.5,180.3,73.3,42.1,102.5-178.5c7-12.3,18.8-20.2,31.3-21.3,1.2,0,2.3-.1,3.5-.1,13.9,0,26.4,7.1,33.4,18.9l104.8,180.3,73.1-42.5-142.6-245.5Z"/>
</svg>